<svg height="512pt" viewBox="0 0 512 512" width="512pt" xmlns="http://www.w3.org/2000/svg"><path fill="#000000" d="m256 0c-140.960938 0-256 115.050781-256 256 0 140.960938 115.050781 256 256 256 140.960938 0 256-115.050781 256-256 0-140.960938-115.050781-256-256-256zm0 482c-124.617188 0-226-101.382812-226-226s101.382812-226 226-226 226 101.382812 226 226-101.382812 226-226 226zm0 0"/><path fill="#000000" d="m256 60c-107.652344 0-196 88.367188-196 196 0 107.652344 88.367188 196 196 196 107.652344 0 196-88.367188 196-196 0-107.652344-88.367188-196-196-196zm0 362c-91.53125 0-166-74.46875-166-166s74.46875-166 166-166 166 74.46875 166 166-74.46875 166-166 166zm0 0"/><path fill="#000000" d="m271 120h-30v151h151v-30h-121zm0 0"/></svg>