<?xml version="1.0" encoding="iso-8859-1"?>
<!-- Generator: Adobe Illustrator 19.0.0, SVG Export Plug-In . SVG Version: 6.00 Build 0)  -->
<svg version="1.1" id="Capa_1" xmlns="http://www.w3.org/2000/svg" xmlns:xlink="http://www.w3.org/1999/xlink" x="0px" y="0px"
	 viewBox="0 0 512 512" style="enable-background:new 0 0 512 512;" xml:space="preserve">
<g>
	<g>
		<path fill="#000000" d="M431,126.946V10H81v116.946L0,177.697V502h512V177.697L431,126.946z M431,162.348l41.76,26.166l-41.76,40.2V162.348z
			 M111,40h290v217.594l-93.348,89.862c-14.122-13.93-32.795-21.604-52.652-21.604c-19.393,0-37.648,7.329-51.646,20.646
			L111,257.594V40z M81,162.348v66.366l-41.76-40.201L81,162.348z M30,472l0.001-250.739l152.102,146.422L77.787,472H30z
			 M120.213,472L223.18,369.033c8.5-8.499,19.8-13.18,31.82-13.18s23.32,4.681,31.82,13.18L389.787,472H120.213z M482,472h-49.787
			L328.878,368.665L482,221.261V472z"/>
	</g>
</g>
<g>
	<g>
		<rect x="140" y="100" width="230" height="30" fill="#000000"/>
	</g>
</g>
<g>
	<g>
		<rect x="140" y="160" width="230" height="30" fill="#000000"/>
	</g>
</g>
<g>
	<g>
		<rect x="140" y="220" width="170" height="30" fill="#000000"/>
	</g>
</g>
<g>
</g>
<g>
</g>
<g>
</g>
<g>
</g>
<g>
</g>
<g>
</g>
<g>
</g>
<g>
</g>
<g>
</g>
<g>
</g>
<g>
</g>
<g>
</g>
<g>
</g>
<g>
</g>
<g>
</g>
</svg>
