<?xml version="1.0" encoding="iso-8859-1"?>
<!-- Generator: Adobe Illustrator 19.0.0, SVG Export Plug-In . SVG Version: 6.00 Build 0)  -->
<svg version="1.1" id="Capa_1" xmlns="http://www.w3.org/2000/svg" xmlns:xlink="http://www.w3.org/1999/xlink" x="0px" y="0px"
	 viewBox="0 0 512 512" style="enable-background:new 0 0 512 512;" xml:space="preserve">
<g>
	<g>
		<path fill="#000000" d="M429.3,304.04h-76.87c39.27-66.98,59.15-116.86,59.15-148.47C411.58,69.79,341.78,0,256,0S100.42,69.79,100.42,155.57
			c0,31.61,19.88,81.49,59.15,148.47H82.7L41.21,512h429.58L429.3,304.04z M130.42,155.57C130.42,86.33,186.76,30,256,30
			s125.58,56.33,125.58,125.57c0,32.99-30.44,92.83-64.12,148.47c-6.18,10.2-12.46,20.27-18.69,30
			c-15.48,24.19-30.6,46.32-42.77,63.44c-12.18-17.12-27.29-39.25-42.78-63.44c-6.23-9.73-12.51-19.79-18.69-30
			C160.86,248.42,130.42,188.58,130.42,155.57z M107.3,334.04h70.44c33.45,53.6,65.87,97.48,66.21,97.94L256,448.26l12.05-16.28
			c0.34-0.46,32.76-44.34,66.21-97.94h70.44L434.21,482H77.79L107.3,334.04z"/>
	</g>
</g>
<g>
	<g>
		<path fill="#000000" d="M256,67.56c-47.22,0-85.63,38.41-85.63,85.63c0,47.22,38.41,85.63,85.63,85.63c47.22,0,85.63-38.41,85.63-85.63
			C341.63,105.97,303.22,67.56,256,67.56z M256,208.82c-30.68,0-55.63-24.95-55.63-55.63c0-30.67,24.95-55.63,55.63-55.63
			s55.63,24.96,55.63,55.63C311.63,183.87,286.68,208.82,256,208.82z"/>
	</g>
</g>
<g>
</g>
<g>
</g>
<g>
</g>
<g>
</g>
<g>
</g>
<g>
</g>
<g>
</g>
<g>
</g>
<g>
</g>
<g>
</g>
<g>
</g>
<g>
</g>
<g>
</g>
<g>
</g>
<g>
</g>
</svg>
