<svg id="vacuum2" enable-background="new 0 0 300 300" height="512" viewBox="0 0 300 300" width="512" xmlns="http://www.w3.org/2000/svg"><g><ellipse cx="166.857" cy="164.941" fill="#efefd2" rx="86" ry="80.941"/><g><path d="m184.857 176.245v-7.471c-9.774 1.438-19.186 4.88-27.615 10.174l-9.941 6.243c-6.475 4.066-10.41 11.166-10.438 18.809h20.24c15.328 0 27.754-12.426 27.754-27.755z" fill="#e5efef"/><path d="m157.102 208h-20.24c-1.063 0-2.083-.424-2.834-1.177-.75-.753-1.17-1.774-1.166-2.838.033-9.069 4.636-17.361 12.312-22.182l9.941-6.243c8.904-5.592 18.716-9.207 29.16-10.744 1.147-.173 2.316.17 3.196.93s1.386 1.865 1.386 3.027v7.472c0 17.51-14.245 31.755-31.755 31.755zm-15.786-8h15.786c13.099 0 23.755-10.656 23.755-23.755v-2.681c-7.634 1.657-14.844 4.599-21.488 8.771l-9.941 6.243c-4.181 2.626-7.052 6.734-8.112 11.422z" fill="#4c241d"/></g><g><path d="m227.749 168h-32.487c-3.496 0-6.972.269-10.405.774v7.471c0 15.329-12.426 27.755-27.755 27.755h-20.24c0 .027-.005.054-.005.082v24.279c0 8.637 7.002 15.639 15.639 15.639h88.361v-62.892c0-7.239-5.869-13.108-13.108-13.108z" fill="#9dc1e4"/><path d="m240.857 248h-88.361c-10.829 0-19.639-8.81-19.639-19.639v-24.279c0-.085.004-.191.01-.288.107-2.113 1.855-3.794 3.995-3.794h20.24c13.099 0 23.755-10.656 23.755-23.755v-7.472c0-1.984 1.455-3.669 3.418-3.957 3.682-.542 7.378-.816 10.986-.816h32.487c9.434 0 17.108 7.675 17.108 17.108v62.892c.001 2.209-1.79 4-3.999 4zm-100-40v20.361c0 6.418 5.221 11.639 11.639 11.639h84.361v-58.892c0-5.022-4.086-9.108-9.108-9.108h-32.487c-2.107 0-4.251.105-6.404.313v3.932c0 17.51-14.245 31.755-31.755 31.755z" fill="#4c241d"/></g><g><path d="m80.857 80c-4.418 0-8 3.582-8 8v144h16v-144c0-4.418-3.582-8-8-8z" fill="#b5a19c"/><path d="m88.857 236h-16c-2.209 0-4-1.791-4-4v-144c0-6.617 5.383-12 12-12s12 5.383 12 12v144c0 2.209-1.791 4-4 4zm-12-8h8v-140c0-2.206-1.794-4-4-4s-4 1.794-4 4z" fill="#4c241d"/></g><g><path d="m88.857 244h-49.714c0-5.509 4.483-10.279 10.785-11.474l38.93-7.383v18.857z" fill="#bd53b5"/><path d="m88.857 248h-49.714c-2.209 0-4-1.791-4-4 0-7.503 5.773-13.837 14.039-15.403l38.93-7.384c1.166-.222 2.379.089 3.297.849.917.76 1.448 1.89 1.448 3.081v18.857c0 2.209-1.791 4-4 4zm-44.28-8h40.28v-10.027l-34.185 6.483c-2.591.491-4.761 1.811-6.095 3.544z" fill="#4c241d"/></g><path d="m125.366 216h-1.719c-14.772 0-26.79-12.018-26.79-26.79 0-4.527 1.159-9.014 3.352-12.974l17.359-31.362c10.002-18.071 15.289-38.539 15.289-59.192v-21.682c0-13.233-10.767-24-24-24s-24 10.767-24 24v14.608c0 2.209-1.791 4-4 4s-4-1.791-4-4v-14.608c0-17.645 14.355-32 32-32s32 14.355 32 32v21.682c0 22.005-5.633 43.812-16.289 63.066l-17.36 31.363c-1.538 2.777-2.351 5.923-2.351 9.099 0 10.361 8.429 18.79 18.79 18.79h1.719c2.209 0 4 1.791 4 4s-1.791 4-4 4z" fill="#4c241d"/><g><circle cx="226.857" cy="230" fill="#6b4f5b" r="34"/><path d="m226.857 268c-20.953 0-38-17.047-38-38s17.047-38 38-38 38 17.047 38 38-17.047 38-38 38zm0-68c-16.542 0-30 13.458-30 30s13.458 30 30 30 30-13.458 30-30-13.458-30-30-30z" fill="#4c241d"/></g><g><circle cx="226.857" cy="230" fill="#b5a19c" r="15.238"/><path d="m226.857 249.237c-10.607 0-19.237-8.63-19.237-19.237s8.63-19.237 19.237-19.237 19.237 8.63 19.237 19.237-8.63 19.237-19.237 19.237zm0-30.474c-6.196 0-11.237 5.041-11.237 11.237s5.041 11.237 11.237 11.237 11.237-5.041 11.237-11.237-5.041-11.237-11.237-11.237z" fill="#4c241d"/></g><g><path d="m228.857 168h-20v-2c0-5.523 4.477-10 10-10 5.523 0 10 4.477 10 10z" fill="#bd53b5"/><path d="m228.857 172h-20c-2.209 0-4-1.791-4-4v-2c0-7.72 6.28-14 14-14s14 6.28 14 14v2c0 2.209-1.791 4-4 4zm-15.657-8h11.314c-.825-2.328-3.05-4-5.657-4s-4.832 1.672-5.657 4z" fill="#4c241d"/></g><g><path d="m136.857 224h-4.386c-4.205 0-7.614-3.409-7.614-7.614v-8.771c0-4.205 3.409-7.614 7.614-7.614h4.386z" fill="#c1dbdc"/><path d="m136.857 228h-4.386c-6.404 0-11.614-5.21-11.614-11.614v-8.771c0-6.404 5.21-11.614 11.614-11.614h4.386c2.209 0 4 1.791 4 4v24c0 2.208-1.791 3.999-4 3.999zm-4.386-24c-1.993 0-3.614 1.621-3.614 3.614v8.771c0 1.993 1.621 3.614 3.614 3.614h.386v-16h-.386z" fill="#4c241d"/></g><g fill="#4c241d"><path d="m260.857 268h-84c-2.209 0-4-1.791-4-4s1.791-4 4-4h84c2.209 0 4 1.791 4 4s-1.791 4-4 4z"/><path d="m160.857 268h-24c-2.209 0-4-1.791-4-4s1.791-4 4-4h24c2.209 0 4 1.791 4 4s-1.791 4-4 4z"/><path d="m120.857 268h-64c-2.209 0-4-1.791-4-4s1.791-4 4-4h64c2.209 0 4 1.791 4 4s-1.791 4-4 4z"/></g></g></svg>