<svg id="paper_x5F_appointment" enable-background="new 0 0 300 300" height="512" viewBox="0 0 300 300" width="512" xmlns="http://www.w3.org/2000/svg"><g><circle cx="153.846" cy="110.023" fill="#eaeaea" r="78"/><g fill="#4c241d"><path d="m219.944 43.977c-.004 0-.012 0-.02 0-2.207-.01-3.988-1.809-3.98-4.018l.035-8c.008-2.203 1.797-3.982 4-3.982h.016c2.211.01 3.992 1.809 3.984 4.018l-.035 8c-.008 2.202-1.797 3.982-4 3.982z"/><path d="m219.827 67.975c-.008 0-.012 0-.02 0-2.211-.012-3.992-1.811-3.98-4.02l.039-8c.012-2.203 1.801-3.98 4-3.98h.02c2.211.012 3.992 1.811 3.98 4.02l-.039 8c-.012 2.202-1.801 3.98-4 3.98z"/><path d="m211.905 51.938c-.008 0-.012 0-.02 0l-8-.039c-2.211-.012-3.992-1.811-3.98-4.02.016-2.211 1.684-3.867 4.02-3.98l8 .039c2.211.012 3.992 1.811 3.98 4.02-.012 2.202-1.801 3.98-4 3.98z"/><path d="m235.905 52.053c-.008 0-.012 0-.02 0l-8-.039c-2.211-.012-3.992-1.811-3.98-4.02s1.961-3.982 4.02-3.98l8 .039c2.211.012 3.992 1.811 3.98 4.02-.012 2.202-1.801 3.98-4 3.98z"/></g><g><path d="m47.846 64.023h148v204h-148z" fill="#fff"/><path d="m195.846 272.023h-148c-2.211 0-4-1.791-4-4v-204c0-2.209 1.789-4 4-4h148c2.211 0 4 1.791 4 4v204c0 2.209-1.789 4-4 4zm-144-8h140v-196h-140z" fill="#4c241d"/></g><g><path d="m67.846 100.023h32" fill="#fff"/><path d="m99.846 104.023h-32c-2.211 0-4-1.791-4-4s1.789-4 4-4h32c2.211 0 4 1.791 4 4s-1.789 4-4 4z" fill="#4c241d"/></g><g><path d="m67.846 124.023h44" fill="#fff"/><path d="m111.846 128.023h-44c-2.211 0-4-1.791-4-4s1.789-4 4-4h44c2.211 0 4 1.791 4 4s-1.789 4-4 4z" fill="#4c241d"/></g><g><path d="m67.846 148.023h88" fill="#fff"/><path d="m155.846 152.023h-88c-2.211 0-4-1.791-4-4s1.789-4 4-4h88c2.211 0 4 1.791 4 4s-1.789 4-4 4z" fill="#4c241d"/></g><g><path d="m67.846 172.023h88" fill="#fff"/><path d="m155.846 176.023h-88c-2.211 0-4-1.791-4-4s1.789-4 4-4h88c2.211 0 4 1.791 4 4s-1.789 4-4 4z" fill="#4c241d"/></g><g><path d="m165.846 92.023h-6v-6c0-3.314-2.686-6-6-6-3.314 0-6 2.686-6 6v6h-6c-3.314 0-6 2.686-6 6 0 3.314 2.686 6 6 6h6v6c0 3.314 2.686 6 6 6 3.314 0 6-2.686 6-6v-6h6c3.314 0 6-2.686 6-6 0-3.313-2.686-6-6-6z" fill="#c1dbdc"/><path d="m153.846 120.023c-5.516 0-10-4.486-10-10v-2h-2c-5.516 0-10-4.486-10-10s4.484-10 10-10h2v-2c0-5.514 4.484-10 10-10s10 4.486 10 10v2h2c5.516 0 10 4.486 10 10s-4.484 10-10 10h-2v2c0 5.514-4.484 10-10 10zm-12-24c-1.102 0-2 .896-2 2s.898 2 2 2h6c2.211 0 4 1.791 4 4v6c0 1.104.898 2 2 2s2-.896 2-2v-6c0-2.209 1.789-4 4-4h6c1.102 0 2-.896 2-2s-.898-2-2-2h-6c-2.211 0-4-1.791-4-4v-6c0-1.104-.898-2-2-2s-2 .896-2 2v6c0 2.209-1.789 4-4 4z" fill="#4c241d"/></g><circle cx="251.877" cy="93.003" fill="#4c241d" r="4.276"/><g><path d="m127.925 217.322c0-3.195-2.392-6.059-5.583-6.226-3.403-.178-6.217 2.528-6.217 5.892v.334c0 2.105-1.104 4.001-2.821 5.219-1.804 1.279-2.888 3.498-2.517 5.958.375 2.489 2.34 4.58 4.807 5.08 1.112.225 2.184.151 3.152-.156 2.159-.685 4.398-.685 6.556 0 .968.307 2.041.382 3.153.156 2.467-.5 4.432-2.59 4.807-5.08.371-2.46-.713-4.679-2.517-5.958-1.716-1.218-2.82-3.115-2.82-5.219z" fill="#ffded5"/><path d="m116.878 237.707c-.691 0-1.387-.068-2.078-.207-4.137-.84-7.336-4.217-7.969-8.406-.578-3.83 1.02-7.592 4.16-9.818.719-.508 1.133-1.221 1.133-1.953 0-3.037 1.125-5.654 3.086-7.516 1.988-1.891 4.699-2.84 7.34-2.705 5.258.275 9.375 4.766 9.375 10.221 0 .73.414 1.445 1.137 1.959 3.137 2.219 4.73 5.979 4.16 9.807-.633 4.195-3.836 7.572-7.973 8.41-1.727.344-3.512.258-5.152-.262-1.375-.438-2.773-.436-4.141-.002-.988.314-2.031.472-3.078.472zm5.148-22.619c-.656 0-1.098.322-1.309.521-.223.211-.594.668-.594 1.379 0 3.645-1.684 6.814-4.508 8.816-.672.477-1 1.26-.871 2.096.125.838.832 1.594 1.645 1.758.406.08.789.066 1.145-.049 2.934-.932 6.039-.936 8.98 0 .359.117.75.133 1.148.047.813-.164 1.52-.918 1.645-1.754.125-.834-.199-1.621-.875-2.096-2.824-2.01-4.508-5.18-4.508-8.484 0-1.158-.82-2.182-1.793-2.232-.035-.002-.07-.002-.105-.002z" fill="#4c241d"/></g><circle cx="142.384" cy="214.763" fill="#4c241d" r="6.127"/><circle cx="132.205" cy="199.494" fill="#4c241d" r="6.127"/><circle cx="114.39" cy="199.494" fill="#4c241d" r="6.127"/><circle cx="101.665" cy="214.763" fill="#4c241d" r="6.127"/></g></svg>