<svg id="veterinary" enable-background="new 0 0 300 300" height="512" viewBox="0 0 300 300" width="512" xmlns="http://www.w3.org/2000/svg"><g><circle cx="136" cy="145.048" fill="#eaeaea" r="78"/><g><path d="m121.753 203.189v47.859h36.247v-94.458c-20.824 5.302-36.247 24.124-36.247 46.599z" fill="#c1dbdc"/><path d="m158 255.048h-36.246c-2.211 0-4-1.791-4-4v-47.859c0-23.834 16.145-44.59 39.258-50.477 1.215-.301 2.473-.037 3.441.719.977.758 1.547 1.924 1.547 3.158v94.459c0 2.209-1.789 4-4 4zm-32.246-8h28.246v-84.996c-16.863 6.484-28.246 22.727-28.246 41.137z" fill="#4c241d"/></g><g><path d="m189.859 155.048h-19.965c-4.113 0-8.083.571-11.894 1.542v94.458h44v-94.395c-3.885-1.012-7.939-1.605-12.141-1.605z" fill="#e5efef"/><path d="m202 255.048h-44c-2.211 0-4-1.791-4-4v-94.459c0-1.828 1.242-3.426 3.012-3.877 4.34-1.104 8.672-1.664 12.883-1.664h19.965c4.305 0 8.727.584 13.148 1.734 1.762.459 2.992 2.051 2.992 3.871v94.395c0 2.209-1.789 4-4 4zm-40-8h36v-87.201c-2.754-.531-5.48-.799-8.141-.799h-19.965c-2.578 0-5.223.252-7.895.752v87.248z" fill="#4c241d"/></g><g><path d="m238 203.189c0-22.385-15.302-41.147-36-46.536v94.395h36z" fill="#c1dbdc"/><path d="m238 255.048h-36c-2.211 0-4-1.791-4-4v-94.395c0-1.238.574-2.408 1.555-3.164.977-.762 2.254-1.018 3.453-.707 22.957 5.977 38.992 26.705 38.992 50.406v47.859c0 2.21-1.789 4.001-4 4.001zm-32-8h28v-43.859c0-18.289-11.281-34.486-28-41.037z" fill="#4c241d"/></g><g><path d="m180 167.048c-5.523 0-10-4.477-10-10v-14h20v14c0 5.523-4.477 10-10 10z" fill="#e7d1c4"/><path d="m180 171.048c-7.719 0-14-6.281-14-14v-14c0-2.209 1.789-4 4-4h20c2.211 0 4 1.791 4 4v14c0 7.719-6.281 14-14 14zm-6-24v10c0 3.309 2.691 6 6 6s6-2.691 6-6v-10z" fill="#4c241d"/></g><g><path d="m142.109 83.048c-.043.042-.066.065-.109.107v26.825c0 18.263 15.002 33.068 33.509 33.068h8.983c18.506 0 33.509-14.805 33.509-33.068v-24.803c-.839-.828-1.319-1.301-2.158-2.13h-73.734z" fill="#e7d1c4"/><path d="m184.492 147.048h-8.984c-20.684 0-37.508-16.629-37.508-37.068v-26.825c0-1.094.449-2.139 1.238-2.893.742-.711 1.844-1.215 2.871-1.215h73.734c1.055 0 2.066.416 2.816 1.158l2.148 2.123c.762.752 1.191 1.777 1.191 2.848v24.803c.002 20.44-16.822 37.069-37.506 37.069zm-38.492-60v22.932c0 16.029 13.238 29.068 29.508 29.068h8.984c16.27 0 29.508-13.039 29.508-29.068v-22.932z" fill="#4c241d"/></g><g><path d="m180 43.048c-20.317 0-36.872 17.706-38 40h76c-1.128-22.295-17.683-40-38-40z" fill="#e5efef"/><path d="m218 87.048h-76c-1.098 0-2.145-.449-2.898-1.244s-1.152-1.863-1.098-2.959c1.246-24.559 19.691-43.797 41.996-43.797s40.75 19.238 41.996 43.797c.055 1.096-.344 2.164-1.098 2.959s-1.8 1.244-2.898 1.244zm-71.586-8h67.172c-2.719-18.25-16.812-32-33.586-32s-30.867 13.75-33.586 32z" fill="#4c241d"/></g><g><circle cx="179.21" cy="49.245" fill="#fff" r="13.21"/><path d="m179.211 66.456c-9.488 0-17.211-7.721-17.211-17.211 0-9.488 7.723-17.209 17.211-17.209s17.211 7.721 17.211 17.209c0 9.49-7.723 17.211-17.211 17.211zm0-26.42c-5.078 0-9.211 4.131-9.211 9.209s4.133 9.211 9.211 9.211 9.211-4.133 9.211-9.211-4.133-9.209-9.211-9.209z" fill="#4c241d"/></g><g><path d="m212.419 192.685c-3.984 0-7.408 2.245-9.187 5.515-1.779-3.27-5.203-5.515-9.187-5.515-5.799 0-10.5 4.701-10.5 10.5s13.124 20.999 19.687 26.249c6.562-5.25 19.687-20.45 19.687-26.249 0-5.8-4.701-10.5-10.5-10.5z" fill="#ffded5"/><path d="m203.23 233.433c-.883 0-1.77-.293-2.5-.877-4.934-3.949-21.184-20.826-21.184-29.371 0-7.996 6.504-14.5 14.5-14.5 3.402 0 6.637 1.211 9.184 3.326 2.555-2.115 5.785-3.326 9.188-3.326 7.996 0 14.5 6.504 14.5 14.5 0 8.549-16.254 25.424-21.188 29.371-.73.584-1.617.877-2.5.877zm-9.183-36.748c-3.586 0-6.5 2.916-6.5 6.5.051 3.105 8.676 14.41 15.684 20.949 7.012-6.539 15.637-17.842 15.688-20.951 0-3.582-2.914-6.498-6.5-6.498-2.348 0-4.523 1.314-5.676 3.43-.699 1.285-2.047 2.086-3.512 2.086-1.469 0-2.816-.803-3.516-2.09-1.149-2.114-3.32-3.426-5.668-3.426z" fill="#4c241d"/></g><g fill="#4c241d"><path d="m90 59.048c-2.211 0-4-1.791-4-4v-8c0-2.209 1.789-4 4-4s4 1.791 4 4v8c0 2.209-1.789 4-4 4z"/><path d="m90 83.048c-2.211 0-4-1.791-4-4v-8c0-2.209 1.789-4 4-4s4 1.791 4 4v8c0 2.209-1.789 4-4 4z"/><path d="m82 67.048h-8c-2.211 0-4-1.791-4-4s1.789-4 4-4h8c2.211 0 4 1.791 4 4s-1.789 4-4 4z"/><path d="m106 67.048h-8c-2.211 0-4-1.791-4-4s1.789-4 4-4h8c2.211 0 4 1.791 4 4s-1.789 4-4 4z"/><circle cx="119.266" cy="90.232" r="4.276"/></g><g><path d="m127.795 215.029 6.911-20.843c1.908-5.755-1.21-11.967-6.965-13.876-5.755-1.908-11.967 1.21-13.876 6.965l-6.217 18.75c-.664-.044-1.323-.112-1.998-.112-1.366 0-2.704.121-4.026.299l-6.279-18.937c-1.908-5.755-8.121-8.873-13.876-6.965s-8.874 8.121-6.965 13.876l7.425 22.391c-5.67 5.982-9.174 13.726-9.174 21.264 0 15.496 15.475 26.123 32.895 26.123s32.895-10.627 32.895-26.123c.001-8.211-4.159-16.66-10.75-22.812z" fill="#edebdc"/><path d="m105.652 267.964c-20.691 0-36.898-13.232-36.898-30.123 0-7.658 3.129-15.629 8.652-22.199l-6.699-20.197c-2.598-7.84 1.664-16.332 9.504-18.932 3.785-1.256 7.852-.969 11.434.832 3.578 1.795 6.238 4.875 7.496 8.672l5.281 15.924c.125-.006.25-.01.371-.014l5.277-15.912c1.258-3.795 3.922-6.875 7.496-8.67 3.574-1.797 7.641-2.09 11.434-.832 3.797 1.26 6.879 3.922 8.672 7.498 1.797 3.576 2.094 7.637.832 11.434l-6.133 18.498c6.41 6.814 10.176 15.578 10.176 23.898 0 16.89-16.207 30.123-36.895 30.123zm-20.722-84.215c-.738 0-1.48.117-2.203.357-3.648 1.211-5.637 5.168-4.426 8.82l7.426 22.391c.465 1.4.121 2.941-.895 4.012-5.133 5.414-8.078 12.16-8.078 18.512 0 13.848 14.691 22.123 28.898 22.123 14.203 0 28.895-8.275 28.895-22.123 0-6.912-3.543-14.348-9.48-19.889-1.141-1.066-1.559-2.699-1.066-4.182l6.91-20.844c.586-1.77.449-3.662-.387-5.326-.836-1.666-2.27-2.908-4.039-3.494-1.773-.59-3.66-.445-5.328.387-1.668.836-2.906 2.271-3.492 4.039l-6.219 18.752c-.574 1.73-2.293 2.848-4.066 2.73l-.52-.037c-1.422-.109-2.852-.049-4.699.199-1.879.25-3.727-.877-4.332-2.705l-6.281-18.938c-.586-1.77-1.824-3.205-3.492-4.041-.986-.493-2.052-.743-3.126-.743z" fill="#4c241d"/></g><circle cx="118" cy="231.048" fill="#4c241d" r="4"/><circle cx="94" cy="231.048" fill="#4c241d" r="4"/><g><path d="m170 120.302c1.296 4.321 5.257 7.491 10 7.491s8.704-3.169 10-7.491" fill="#e7d1c4"/><path d="m180 131.794c-6.418 0-11.977-4.156-13.832-10.342-.633-2.117.566-4.348 2.684-4.982 2.117-.633 4.348.568 4.98 2.682.832 2.777 3.312 4.643 6.168 4.643s5.336-1.865 6.168-4.643c.633-2.113 2.859-3.326 4.98-2.682 2.117.635 3.316 2.865 2.684 4.982-1.855 6.186-7.414 10.342-13.832 10.342z" fill="#4c241d"/></g></g></svg>