<svg id="cross_x5F_paw" enable-background="new 0 0 300 300" height="512" viewBox="0 0 300 300" width="512" xmlns="http://www.w3.org/2000/svg"><g><circle cx="106.301" cy="144.161" fill="#eaeaea" r="78"/><g><path d="m252.301 126.161h-60v-64h-72v64h-60v68h60v63.677h72v-63.677h60z" fill="#c1dbdc"/><path d="m192.301 261.839h-72c-2.209 0-4-1.791-4-4v-59.678h-56c-2.209 0-4-1.791-4-4v-68c0-2.209 1.791-4 4-4h56v-60c0-2.209 1.791-4 4-4h72c2.209 0 4 1.791 4 4v60h56c2.209 0 4 1.791 4 4v68c0 2.209-1.791 4-4 4h-56v59.678c0 2.209-1.791 4-4 4zm-68-8h64v-59.678c0-2.209 1.791-4 4-4h56v-60h-56c-2.209 0-4-1.791-4-4v-60h-64v60c0 2.209-1.791 4-4 4h-56v60h56c2.209 0 4 1.791 4 4z" fill="#4c241d"/></g><g><path d="m219.532 169.666c0-9.806-7.343-18.596-17.136-19.109-10.444-.547-19.084 7.76-19.084 18.084v1.025c0 6.46-3.389 12.282-8.659 16.018-5.538 3.926-8.863 10.738-7.725 18.288 1.152 7.641 7.183 14.057 14.756 15.591 3.412.692 6.704.464 9.676-.48 6.626-2.103 13.498-2.103 20.124 0 2.972.943 6.264 1.171 9.677.48 7.573-1.535 13.605-7.951 14.756-15.592 1.138-7.55-2.187-14.361-7.725-18.287-5.271-3.736-8.66-9.558-8.66-16.018z" fill="#ffded5"/><path d="m217.219 223.96c-2.369 0-4.715-.355-6.945-1.064-5.875-1.861-11.83-1.861-17.705 0-3.719 1.182-7.75 1.387-11.68.588-9.15-1.855-16.52-9.633-17.916-18.916-1.305-8.641 2.285-17.127 9.367-22.146 4.432-3.143 6.973-7.791 6.973-12.754v-1.025c0-6.125 2.447-11.822 6.893-16.039 4.443-4.217 10.266-6.355 16.398-6.039 11.734.613 20.928 10.762 20.928 23.104 0 4.965 2.541 9.613 6.973 12.754 7.08 5.02 10.668 13.506 9.367 22.146-1.4 9.283-8.768 17.062-17.916 18.916-1.571.317-3.159.475-4.737.475zm-15.797-10.443c3.793 0 7.584.584 11.27 1.754 2.459.781 5.039.9 7.674.373 5.918-1.201 10.688-6.244 11.596-12.268.848-5.637-1.482-11.166-6.084-14.428-6.574-4.66-10.346-11.689-10.346-19.281 0-7.949-5.986-14.73-13.346-15.115-3.906-.197-7.639 1.166-10.475 3.854-2.836 2.691-4.398 6.326-4.398 10.236v1.025c0 7.592-3.771 14.619-10.346 19.281-4.604 3.262-6.934 8.789-6.084 14.428.906 6.023 5.676 11.066 11.596 12.268 2.635.529 5.209.408 7.672-.373 3.687-1.17 7.478-1.754 11.271-1.754z" fill="#4c241d"/></g><g><circle cx="251.919" cy="166.312" fill="#e7d1c4" r="15.78"/><path d="m251.918 186.093c-10.906 0-19.779-8.873-19.779-19.781 0-10.906 8.873-19.779 19.779-19.779 10.908 0 19.781 8.873 19.781 19.779 0 10.908-8.873 19.781-19.781 19.781zm0-31.561c-6.496 0-11.779 5.283-11.779 11.779s5.283 11.781 11.779 11.781 11.781-5.285 11.781-11.781-5.285-11.779-11.781-11.779z" fill="#4c241d"/></g><g><circle cx="226.67" cy="128.439" fill="#e7d1c4" r="15.78"/><path d="m226.67 148.22c-10.906 0-19.779-8.873-19.779-19.781 0-10.906 8.873-19.779 19.779-19.779 10.908 0 19.781 8.873 19.781 19.779 0 10.908-8.873 19.781-19.781 19.781zm0-31.561c-6.496 0-11.779 5.283-11.779 11.779s5.283 11.781 11.779 11.781 11.781-5.285 11.781-11.781-5.285-11.779-11.781-11.779z" fill="#4c241d"/></g><g><circle cx="182.485" cy="128.439" fill="#e7d1c4" r="15.78"/><path d="m182.484 148.22c-10.906 0-19.779-8.873-19.779-19.781 0-10.906 8.873-19.779 19.779-19.779 10.908 0 19.781 8.873 19.781 19.779.001 10.908-8.872 19.781-19.781 19.781zm0-31.561c-6.496 0-11.779 5.283-11.779 11.779s5.283 11.781 11.779 11.781 11.781-5.285 11.781-11.781-5.285-11.779-11.781-11.779z" fill="#4c241d"/></g><g><circle cx="150.924" cy="166.312" fill="#e7d1c4" r="15.78"/><path d="m150.924 186.093c-10.906 0-19.779-8.873-19.779-19.781 0-10.906 8.873-19.779 19.779-19.779 10.908 0 19.781 8.873 19.781 19.779 0 10.908-8.873 19.781-19.781 19.781zm0-31.561c-6.496 0-11.779 5.283-11.779 11.779s5.283 11.781 11.779 11.781 11.781-5.285 11.781-11.781-5.285-11.779-11.781-11.779z" fill="#4c241d"/></g><g fill="#4c241d"><path d="m52.301 54.161c-2.209 0-4-1.791-4-4v-8c0-2.209 1.791-4 4-4s4 1.791 4 4v8c0 2.209-1.791 4-4 4z"/><path d="m52.301 78.161c-2.209 0-4-1.791-4-4v-8c0-2.209 1.791-4 4-4s4 1.791 4 4v8c0 2.209-1.791 4-4 4z"/><path d="m44.301 62.161h-8c-2.209 0-4-1.791-4-4s1.791-4 4-4h8c2.209 0 4 1.791 4 4s-1.791 4-4 4z"/><path d="m68.301 62.161h-8c-2.209 0-4-1.791-4-4s1.791-4 4-4h8c2.209 0 4 1.791 4 4s-1.791 4-4 4z"/><circle cx="88.403" cy="91.428" r="4.276"/></g></g></svg>